<svg width="520" height="148" viewBox="0 0 520 148" fill="none" xmlns="http://www.w3.org/2000/svg">
<path d="M35.8665 147.94C29.285 147.94 23.2718 146.662 17.8267 144.105C12.3816 141.501 8.04925 137.76 4.82956 132.883C1.60986 127.959 1.08306e-05 121.993 1.08306e-05 114.986C1.08306e-05 109.588 1.018 105.043 3.05399 101.349C5.08997 97.6562 7.97823 94.6259 11.7188 92.2585C15.4593 89.8911 19.8864 88.0208 25 86.6477C30.1136 85.2746 35.7481 84.2093 41.9034 83.4517C48.0114 82.6941 53.1724 82.0312 57.3864 81.463C61.6477 80.8949 64.8911 79.9952 67.1165 78.7642C69.3419 77.5331 70.4546 75.5445 70.4546 72.7983V70.2415C70.4546 62.8077 68.2292 56.9602 63.7784 52.6988C59.375 48.3901 53.0303 46.2358 44.7443 46.2358C36.8845 46.2358 30.4688 47.964 25.4972 51.4204C20.5729 54.8769 17.1165 58.9488 15.1279 63.6363L3.12501 59.304C5.58713 53.338 8.99622 48.5795 13.3523 45.0284C17.7083 41.4299 22.5852 38.8494 27.983 37.2869C33.3807 35.6771 38.8494 34.8721 44.3892 34.8721C48.5559 34.8721 52.8883 35.4166 57.3864 36.5057C61.9318 37.5947 66.1458 39.4886 70.0284 42.1875C73.911 44.839 77.0597 48.5558 79.4744 53.338C81.8892 58.0729 83.0966 64.0861 83.0966 71.3778V145.455H70.4546V128.196H69.6733C68.1582 131.416 65.9091 134.541 62.9261 137.571C59.9432 140.601 56.2027 143.087 51.7046 145.028C47.2064 146.97 41.9271 147.94 35.8665 147.94ZM37.571 136.364C44.2945 136.364 50.1184 134.872 55.0426 131.889C59.9669 128.906 63.7547 124.953 66.4063 120.028C69.1051 115.057 70.4546 109.588 70.4546 103.622V87.8551C69.5076 88.7547 67.9214 89.5596 65.696 90.2699C63.518 90.9801 60.9849 91.6193 58.0966 92.1875C55.2557 92.7083 52.4148 93.1581 49.5739 93.5369C46.733 93.9157 44.1761 94.2471 41.9034 94.5312C35.7481 95.2888 30.4924 96.4725 26.1364 98.0824C21.7803 99.6922 18.4422 101.918 16.1222 104.758C13.8021 107.552 12.6421 111.151 12.6421 115.554C12.6421 122.183 15.0095 127.32 19.7443 130.966C24.4792 134.564 30.4214 136.364 37.571 136.364ZM119.354 145.455V-2.38744e-05H132.067V57.1733H133.203C134.624 53.9062 136.66 50.5445 139.311 47.088C142.01 43.6316 145.537 40.7433 149.893 38.4233C154.297 36.0558 159.837 34.8721 166.513 34.8721C175.462 34.8721 183.321 37.2396 190.092 41.9744C196.863 46.6619 202.143 53.2433 205.93 61.7187C209.718 70.1468 211.612 79.9716 211.612 91.1932C211.612 102.462 209.718 112.334 205.93 120.81C202.19 129.285 196.934 135.89 190.163 140.625C183.44 145.36 175.627 147.727 166.726 147.727C160.097 147.727 154.557 146.544 150.107 144.176C145.703 141.809 142.152 138.897 139.453 135.44C136.754 131.937 134.671 128.527 133.203 125.213H131.641V145.455H119.354ZM131.854 90.9801C131.854 99.7869 133.156 107.599 135.76 114.418C138.411 121.188 142.199 126.515 147.124 130.398C152.095 134.233 158.108 136.151 165.163 136.151C172.408 136.151 178.539 134.162 183.558 130.185C188.577 126.16 192.389 120.739 194.993 113.92C197.597 107.102 198.899 99.4555 198.899 90.9801C198.899 82.5994 197.597 75.0473 194.993 68.3238C192.436 61.6004 188.648 56.2736 183.629 52.3437C178.61 48.3665 172.455 46.3778 165.163 46.3778C158.061 46.3778 152.024 48.2954 147.053 52.1307C142.128 55.9185 138.364 61.1742 135.76 67.8977C133.156 74.5738 131.854 82.268 131.854 90.9801ZM281.783 147.727C272.36 147.727 264.027 145.336 256.783 140.554C249.586 135.772 243.951 129.167 239.879 120.739C235.807 112.263 233.771 102.486 233.771 91.4062C233.771 80.232 235.807 70.4072 239.879 61.9318C243.951 53.4091 249.586 46.7803 256.783 42.0454C264.027 37.2632 272.36 34.8721 281.783 34.8721C291.205 34.8721 299.515 37.2632 306.712 42.0454C313.909 46.8276 319.543 53.4564 323.615 61.9318C327.734 70.4072 329.794 80.232 329.794 91.4062C329.794 102.486 327.758 112.263 323.686 120.739C319.614 129.167 313.956 135.772 306.712 140.554C299.515 145.336 291.205 147.727 281.783 147.727ZM281.783 136.151C289.358 136.151 295.774 134.115 301.03 130.043C306.286 125.971 310.263 120.549 312.962 113.778C315.708 107.008 317.081 99.5502 317.081 91.4062C317.081 83.2623 315.708 75.7812 312.962 68.963C310.263 62.1449 306.286 56.6761 301.03 52.5568C295.774 48.4375 289.358 46.3778 281.783 46.3778C274.254 46.3778 267.839 48.4375 262.536 52.5568C257.28 56.6761 253.279 62.1449 250.533 68.963C247.834 75.7812 246.484 83.2623 246.484 91.4062C246.484 99.5502 247.834 107.008 250.533 113.778C253.279 120.549 257.28 125.971 262.536 130.043C267.791 134.115 274.207 136.151 281.783 136.151ZM426.864 103.764V36.3636H439.506V145.455H426.864V127.344H425.87C423.313 132.931 419.265 137.595 413.725 141.335C408.185 145.028 401.415 146.875 393.413 146.875C386.452 146.875 380.273 145.36 374.876 142.33C369.478 139.252 365.24 134.754 362.163 128.835C359.085 122.917 357.546 115.649 357.546 107.031V36.3636H370.188V106.25C370.188 114.773 372.698 121.638 377.717 126.847C382.736 132.008 389.175 134.588 397.035 134.588C401.959 134.588 406.694 133.404 411.239 131.037C415.785 128.669 419.525 125.213 422.461 120.668C425.397 116.075 426.864 110.44 426.864 103.764ZM515.945 36.3636V47.3721H463.885V36.3636H515.945ZM480.149 10.2273H492.862V116.974C492.862 121.52 493.643 125.095 495.206 127.699C496.768 130.256 498.804 132.079 501.314 133.168C503.823 134.209 506.499 134.73 509.339 134.73C510.997 134.73 512.417 134.635 513.601 134.446C514.785 134.209 515.826 133.973 516.726 133.736L519.425 145.17C518.194 145.644 516.678 146.07 514.879 146.449C513.08 146.875 510.855 147.088 508.203 147.088C503.563 147.088 499.089 146.07 494.78 144.034C490.518 141.998 487.015 138.968 484.268 134.943C481.522 130.919 480.149 125.923 480.149 119.957V10.2273Z" fill="#E6E6E6"/>
</svg>
